# xmcd
#
# Track frame offsets:
#	150
#	23458
#	35942
#	52297
#	69238
#	83119
#	100879
#	117792
#	143686
#	167310
#
# Disc length: 2331 seconds
#
# Revision: 1
# Processed by: cddbd v1.5.2PL0 Copyright (c) Steve Scherf et al.
# Submitted via: audiograbber 1.83.01
#
DISCID=7b09190a
DTITLE=Helen Schneider - Schneider With The Kick
DYEAR=1981
DGENRE=Rock
TTITLE0=Rock 'n' Roll Gypsy (Rock 'n' Roll Outlaw)
TTITLE1=You Really Got Me
TTITLE2=Shadows Of The Night
TTITLE3=Turn Me On (Too Much Woman)
TTITLE4=Don't Let Me Be Misunderstood
TTITLE5=Let Me Touch You
TTITLE6=Tinker Tailor
TTITLE7=Angry Times
TTITLE8=I'd Like To Be A Child Again
TTITLE9=When The Dream Is Over
EXTD=
EXTT0=
EXTT1=
EXTT2=
EXTT3=
EXTT4=
EXTT5=
EXTT6=
EXTT7=
EXTT8=
EXTT9=
PLAYORDER=
